<svg width="40" height="35" viewBox="0 0 40 35" fill="none" xmlns="http://www.w3.org/2000/svg">
<path d="M35.0671 0H25.8191L24.2576 5.69795H28.147C28.6655 4.21153 30.0542 3.19753 31.6502 3.19753H34.1337L33.4192 5.69795L27.1674 27.5276L26.4817 29.5556C26.1879 30.5984 25.508 31.0996 24.4247 31.0996H5.65796L6.38397 28.7202L14.1972 3.19753H18.3055C18.9163 3.19753 19.3542 3.79095 19.1756 4.3786L18.7665 5.69795H23.0361L24.6091 0H10.3885L7.14455 11.8165L1.95877 28.7087L0.0285034 35H23.6584C26.3262 35 30.1003 34.9943 30.7859 31.2436L32.1573 25.8165L32.4512 24.7506C32.4915 24.7333 35.7009 13.0033 37.6888 5.69795C38.5877 2.39671 39.2388 0 39.2388 0H35.0613H35.0671Z" fill="#7A32C1"/>
</svg>
