<svg width="112" height="111" viewBox="0 0 112 111" fill="none" xmlns="http://www.w3.org/2000/svg">
<g clip-path="url(#clip0_1852_2192)">
<path d="M60.9237 69.5054C60.7655 69.6184 60.6299 69.7615 60.5319 69.9273C60.2532 69.5732 59.9443 69.2417 59.6203 68.9328C57.4203 66.8307 57.699 65.1204 57.9853 64.6382C58.4148 63.9225 58.1888 63.0033 57.473 62.5663C57.0737 62.3252 56.5915 62.28 56.1545 62.4458C53.3443 63.6513 51.1744 65.9944 50.1874 68.8876C49.9689 68.6465 49.7353 68.3978 49.4716 68.1341C48.884 67.5465 47.9271 67.5465 47.3395 68.1341C47.0004 68.4732 46.8422 68.9629 46.9175 69.4376L47.2566 71.5245C47.2792 72.4136 47.0984 73.2951 46.7292 74.1013C46.1038 75.2013 45.7347 76.4293 45.6593 77.6876C45.5162 79.88 46.2696 82.0424 47.7463 83.6697C46.1867 86.0355 46.2395 89.1095 47.8819 91.4225C47.9271 91.4828 47.9723 91.5355 48.0251 91.5882L54.3011 97.8191C55.0244 98.678 56.3052 98.7835 57.1641 98.0602C57.247 97.9848 57.3299 97.9095 57.3977 97.8266L63.3497 92.0252C63.4025 91.9725 63.4552 91.9122 63.5004 91.8519C63.8696 91.3697 64.1785 90.8424 64.4271 90.2924C64.8716 89.3506 65.0901 88.3259 65.0826 87.2937C65.06 85.8095 64.5401 84.378 63.6134 83.2252C64.4648 82.4115 65.1278 81.4245 65.5573 80.3321C66.71 77.3184 65.8586 73.7923 63.0258 69.8519C62.5436 69.1739 61.6018 69.0232 60.9237 69.5054ZM61.6771 89.0643C61.534 89.3807 61.3607 89.6745 61.1573 89.9533L55.8607 95.1218L50.2401 89.5389C49.8182 88.891 49.6073 88.1225 49.6374 87.354C49.6751 85.6513 50.8278 84.1971 52.2141 84.1218C52.2367 84.1218 52.2593 84.1218 52.2819 84.1218C53.1333 84.1218 54.0299 85.0184 54.5573 85.93C54.9716 86.6533 55.8908 86.9019 56.6141 86.4876C56.8477 86.3519 57.036 86.1636 57.1716 85.93C57.7141 84.9958 58.6408 84.0992 59.5148 84.1218C60.9011 84.2047 62.0538 85.6513 62.0915 87.354C62.0915 87.9492 61.9559 88.5293 61.6997 89.0643H61.6771ZM62.747 79.2471C62.4004 80.0985 61.8504 80.8444 61.1347 81.417C59.2737 80.7088 57.1641 81.2287 55.8532 82.728C54.8662 81.6656 53.4799 81.078 52.0258 81.1081C51.3175 81.1533 50.6319 81.3417 49.999 81.6581C49.0196 80.641 48.5374 79.2471 48.673 77.8458C48.7333 77.0396 48.9744 76.256 49.3812 75.5554C49.6073 75.1259 49.7956 74.6739 49.9237 74.2067C50.436 74.8622 51.3853 74.9828 52.0408 74.4704C52.4326 74.1691 52.6436 73.6944 52.621 73.1971C52.4025 70.8389 53.2538 68.5108 54.934 66.8382C55.371 68.4807 56.2751 69.965 57.5408 71.1026C58.7011 72.0745 59.3566 73.5211 59.3415 75.0355V75.0807C59.2285 75.9095 59.8086 76.6629 60.6299 76.7684C61.4436 76.8739 62.1895 76.3163 62.3175 75.5026V75.465C62.3477 75.2691 62.3929 75.0807 62.4607 74.8924C63.1086 76.2485 63.2066 77.8006 62.747 79.2396V79.2471Z" fill="#9759D5"/>
<path d="M70.8915 63.9828C70.8915 63.7417 70.9669 63.5081 71.11 63.3123C71.1477 63.2595 71.1854 63.2068 71.223 63.154L75.0956 56.765C76.1128 55.4239 76.6628 53.7814 76.6552 52.1013L76.6778 35.7219C76.6778 35.6766 76.6703 35.639 76.6628 35.5938V33.6123V29.0616C76.6628 29.0616 76.6628 29.0164 76.6628 28.9938V10.9945C76.6628 9.90952 76.2107 8.8698 75.4347 8.10884C74.3347 7.05404 72.858 6.48144 71.336 6.51911C71.336 6.51911 71.321 6.51911 71.3059 6.51911C71.2984 6.51911 71.2908 6.51911 71.2758 6.51911C69.7539 6.48144 68.2771 7.05404 67.1771 8.10884C66.3936 8.86226 65.9491 9.90199 65.9415 10.9945V20.8794C65.0751 20.2766 64.0278 19.9225 62.8902 19.9225H61.6621C60.6902 19.9225 59.7408 20.1938 58.9045 20.691C58.6258 19.8547 58.1511 19.0938 57.5333 18.4684C56.5614 17.4739 55.2278 16.9164 53.834 16.9088H52.6134C51.7395 16.9314 50.9258 17.1725 50.1949 17.5568V5.75815C50.1874 2.77459 47.4751 0.348565 44.1374 0.333496H44.1299H43.4141H42.6984H42.6908C39.3607 0.348565 36.6408 2.77459 36.6408 5.75815V30.3951C34.1545 30.4479 32.158 32.452 32.1278 34.9383L32.1052 52.2294C32.1052 54.4671 33.0997 56.5842 34.8326 58.0082L40.3326 63.7116C40.3778 63.7568 40.423 63.7945 40.4682 63.8321C40.6867 64.0054 40.8148 64.2766 40.8073 64.5554L38.8484 108.766C38.8107 109.595 39.4586 110.303 40.2874 110.341C40.31 110.341 40.3326 110.341 40.3552 110.341C41.1614 110.341 41.8244 109.708 41.8621 108.902L43.821 64.691C43.8662 63.4931 43.3614 62.3403 42.4497 61.5643L36.9497 55.8609C36.9045 55.8157 36.8593 55.778 36.8141 55.7403C35.7518 54.889 35.134 53.6082 35.134 52.2445L35.1566 34.9534C35.1792 34.0794 35.91 33.3938 36.7765 33.4164L49.7203 33.4013C51.5662 33.326 53.1559 34.6897 53.3593 36.528C53.4196 37.4246 53.1107 38.3061 52.4929 38.954C51.8223 39.6623 50.8881 40.0616 49.9086 40.0465L43.271 40.0239C42.4422 40.0239 41.7641 40.6945 41.7641 41.5308V47.2869C41.7566 48.1157 42.4271 48.7938 43.2559 48.7938L48.4545 48.8164C48.9518 48.8164 49.4189 49.0123 49.7655 49.3739C50.2251 49.8486 50.4813 50.489 50.4737 51.152V55.2657C50.4662 56.0945 51.1367 56.7725 51.973 56.7725C52.8018 56.7725 53.4799 56.102 53.4799 55.2657V51.152C53.4949 49.6903 52.9223 48.2814 51.8977 47.2342C50.9936 46.315 49.7504 45.8027 48.4621 45.7951L44.7778 45.7801V43.0376L49.9162 43.0527C51.7244 43.0527 53.4573 42.3143 54.7004 41.0034C55.6497 39.9938 56.2299 38.6903 56.3504 37.3116C56.5765 37.1835 56.7949 37.0403 56.9984 36.8821C57.2244 37.2664 57.4956 37.6205 57.8121 37.9369C58.8217 38.954 60.2004 39.5266 61.6319 39.5191H62.8525C64.1182 39.5191 65.3388 39.0746 66.3107 38.2609C66.5217 38.7205 66.8155 39.1424 67.1771 39.504C68.2922 40.5588 69.7915 41.1314 71.3285 41.0938C72.1271 41.0938 72.9182 40.9356 73.6566 40.6342L73.6415 52.1164C73.6491 53.1561 73.31 54.1657 72.6771 54.9869C72.6395 55.0397 72.6018 55.0924 72.5641 55.1451L68.684 61.5417C68.1415 62.2725 67.8628 63.154 67.8703 64.0657L69.2867 97.2013L69.7915 108.91C69.8292 109.716 70.4922 110.349 71.2984 110.349C71.321 110.349 71.3436 110.349 71.3662 110.349C72.195 110.311 72.8429 109.61 72.8052 108.781L72.2251 95.1746L70.8915 64.0054V63.9828ZM47.1888 27.4794V30.3801L39.6621 30.3876V26.3116V5.76569C39.6696 4.43966 41.0408 3.35473 42.7285 3.35473H43.4217H44.1148C45.8025 3.35473 47.1737 4.43966 47.1737 5.76569V27.4794H47.1888ZM56.2223 32.2184C56.2223 32.8212 56.0415 33.4164 55.7025 33.9136C54.61 31.8643 52.523 30.5308 50.21 30.3951V22.6951C50.1347 21.2712 51.2045 20.0356 52.6285 19.9225H53.8415C54.4367 19.9225 54.9943 20.1712 55.4087 20.6006C55.9436 21.1582 56.245 21.904 56.2374 22.6801L56.2223 32.2184ZM65.271 25.3397L65.2559 34.0869C65.2559 35.4205 64.1785 36.4979 62.8449 36.5054H61.6319C60.3134 36.5054 59.236 35.4356 59.2436 34.1095L59.2586 25.3547C59.2586 24.0212 60.336 22.9438 61.6696 22.9438H62.8826C64.2011 22.9438 65.2785 24.0136 65.271 25.3397ZM73.6491 36.6034C73.6491 37.2965 72.6922 38.065 71.2607 38.0725C70.5449 38.0951 69.8443 37.8465 69.3093 37.3719C69.0984 37.176 68.9703 36.9123 68.9552 36.626V33.6349V30.3123V10.9869C68.9703 10.7006 69.0984 10.4294 69.3093 10.241C69.8443 9.76637 70.5826 9.51774 71.2908 9.54035C72.0066 9.51774 72.7676 9.76637 73.3025 10.241C73.5134 10.4369 73.6415 10.7006 73.6566 10.9869V29.7849L73.6415 36.6034H73.6491Z" fill="#9759D5"/>
<path d="M26.869 59.1686C16.758 61.022 7.21213 54.6104 3.08337 45.9234C2.79706 45.3508 2.232 45.072 1.65939 45.2077C1.08679 45.2077 0.664873 45.6371 0.521722 46.2022C0.521722 46.3453 -0.615949 50.6173 1.65939 55.6049L3.51282 65.2864C3.51282 65.859 4.22857 71.1255 6.93337 74.6892V74.9755C10.2108 84.3782 19.0409 85.9453 24.021 81.1008C25.3019 79.82 23.4484 77.8234 22.1676 79.1042C19.606 81.5227 14.7614 82.0953 11.4841 77.5371C13.7594 77.9666 19.4628 78.2529 21.1656 76.6857C22.5895 75.4049 20.7361 73.4083 19.4553 74.546C19.4553 74.546 17.8882 75.5405 12.4786 74.9755C9.77378 74.6892 8.20665 72.1275 7.35528 69.709C10.4895 71.8488 15.1909 72.9864 18.6039 72.8433C19.3197 72.8433 20.0279 72.1275 19.8847 71.4193C19.8847 70.7036 19.169 70.1385 18.4608 70.1385C18.3176 70.1385 9.77378 70.4248 6.21008 64.7289L5.49433 61.0296C8.05597 63.5912 12.0491 66.1529 17.745 68.0063C18.4608 68.2926 19.3121 67.8631 19.4553 67.1549C19.7416 66.4392 19.3121 65.5878 18.6039 65.4446C11.6272 63.0262 4.78611 58.7542 3.22652 51.6268C7.64159 57.609 13.4806 60.457 18.0388 61.7378C20.7436 62.4536 23.8779 62.5892 27.4416 61.881C30.0032 61.4515 31.9998 62.8755 33.2806 66.1529C35.9854 72.9864 30.5758 76.6933 25.8745 74.2673C24.3073 73.4159 23.7347 72.2707 24.3073 70.4248C25.0231 68.2851 26.1608 67.8631 27.0121 67.8631C27.7279 67.8631 28.4361 68.1494 28.8656 68.7145C29.7169 69.709 29.4382 70.9899 29.1519 71.133C28.7224 71.4193 27.5847 70.9899 26.8765 70.7036C26.1683 70.4173 25.3094 70.5604 25.0231 71.2762C24.7368 71.9919 24.8799 72.8433 25.5957 73.1296C31.2916 76.1207 34.1395 70.2816 31.0053 66.8611C29.8676 65.5803 28.3005 65.0077 26.7334 65.1508C24.3149 65.4371 22.4614 67.0042 21.6101 69.709C20.043 74.6967 24.3149 77.8234 28.7299 77.8234C32.0073 77.8234 34.9984 76.1131 36.2793 72.8357C37.1306 70.5604 36.995 67.9912 35.8498 65.1433C33.4313 59.0179 29.295 58.7316 26.8765 59.1611L26.869 59.1686Z" fill="#9759D5"/>
<path d="M111.524 46.3524C111.381 45.7798 110.951 45.3579 110.386 45.3579C109.821 45.3579 109.248 45.6442 108.962 46.0737C104.69 54.6175 95.1444 61.0291 84.8903 59.1757C77.6273 57.7517 73.4985 67.2901 75.6307 72.8504C77.341 77.4086 82.8937 79.1189 87.3088 76.836C90.1567 75.412 91.1512 72.8504 90.2999 69.7161C89.4485 67.0113 87.7382 65.4442 85.1766 65.1579C81.8992 64.8716 79.0512 67.8627 79.767 71.1401C80.4827 74.2744 83.4663 74.5606 86.3218 73.1367C87.0375 72.8504 87.3163 71.999 86.8944 71.2833C86.6081 70.5675 85.7567 70.2887 85.041 70.7107C84.4684 70.997 83.3307 71.4264 82.7656 71.1401C82.7656 71.1401 82.4793 70.997 82.4793 70.5675C81.9067 67.8627 86.3218 66.2956 87.6026 70.5675C88.1752 72.4209 87.6026 73.5586 86.0355 74.41C83.1875 75.8339 79.3451 74.9826 78.1999 71.8483C76.919 68.4278 79.3375 61.0216 84.4684 62.0237C94.4362 63.8771 103.696 58.6031 108.676 51.7696C107.109 58.8894 100.275 63.1613 93.2985 65.4442C92.5827 65.7305 92.1608 66.4387 92.4471 67.1545C92.7334 67.8702 93.4417 68.2922 94.1574 68.0059C99.8533 66.1524 103.696 63.7339 106.408 61.1723L105.835 64.8716C102.701 70.4244 93.728 70.1381 93.5848 70.1381C92.869 70.1381 92.1608 70.7106 92.1608 71.4189C92.1608 72.1271 92.7334 72.8428 93.4416 72.8428C96.5759 72.986 101.277 72.1271 104.412 70.1381C103.417 72.2778 101.993 74.41 99.567 75.1257C94.4437 76.6928 92.8766 74.9826 92.8766 74.9826C92.4471 74.41 91.5958 74.2668 90.88 74.6963C90.3074 75.1257 90.1643 75.9771 90.5937 76.6928C90.7369 76.9791 92.1608 78.6894 95.717 78.6894C96.8547 78.6894 98.4218 78.5463 100.132 77.9737C98.9944 79.3976 97.8567 80.5353 96.5684 80.9648C94.293 81.6805 91.5807 81.1079 89.878 79.3976C89.3053 78.825 88.454 78.825 87.8814 79.3976C87.3088 79.9702 87.3088 80.8216 87.8814 81.3942C90.2999 83.6696 94.0067 84.5285 97.2841 83.5339C102.407 81.9668 105.971 73.423 106.544 72.1422C108.397 68.5785 108.683 65.3086 109.964 56.3353C112.669 51.0689 111.531 46.5106 111.531 46.3675L111.524 46.3524Z" fill="#9759D5"/>
</g>
<defs>
<clipPath id="clip0_1852_2192">
<rect width="111.529" height="110" fill="white" transform="translate(0.235352 0.333496)"/>
</clipPath>
</defs>
</svg>
