<svg width="192" height="36" viewBox="0 0 192 36" fill="none" xmlns="http://www.w3.org/2000/svg">
    <g clip-path="url(#5jlm365r7a)" fill="#fff">
        <path d="m18.705 7.08-4.947 21.132L20.354 7.08h-1.65zM21.29 7.08l-4.94 21.132L22.938 7.08H21.29zM23.663 7.08l-4.941 21.132 6.59-21.132h-1.65zM25.995 7.08l-4.94 21.132 6.59-21.132h-1.65z"/>
        <path d="M35.245.5h-9.221l-1.557 5.698h3.878a3.698 3.698 0 0 1 3.493-2.5h2.476l-.712 2.5-6.234 21.83-.683 2.028c-.293 1.042-.971 1.544-2.051 1.544H5.922l.724-2.38 7.79-25.522h4.096a.913.913 0 0 1 .868 1.18l-.408 1.32h4.257L24.818.5h-14.18L7.404 12.316 2.234 29.21.308 35.5h23.56c2.66 0 6.424-.006 7.107-3.756l1.368-5.427.293-1.066c.04-.018 3.24-11.748 5.222-19.053L39.404.5H35.24h.006zM111.581 11.55l-1.994 7.294-2.849 10.428h9.014c.942 0 1.769-.634 2.022-1.544l.546-2.005h-2.844c-.184.645-.264 1.85-1.413 1.85h-3.936l3.804-14.047h4.211c.379 0 .649.37.534.726l-.253.818h2.804l.965-3.514h-10.617l.006-.006zM59.369 11.55 54.52 29.272h8.152c1.092 0 2.465-.732 2.752-1.786l4.36-15.936H59.37zm3.562 14.928a1.53 1.53 0 0 1-1.465 1.089h-3.51l3.309-12.341a2.29 2.29 0 0 1 2.212-1.705h3.165l-3.705 12.957h-.006zM124.1 11.55l-.966 3.515h.891s.908-1.544 2.568-1.544l-4.309 15.751h2.93l4.252-15.705c.678.098 1.844.42 1.844 1.498h.505l.971-3.515H124.1zM147.471 11.55l-.965 3.515h.89s.908-1.544 2.569-1.544l-1.454 5.323-2.85 10.428h2.93l4.252-15.705c.678.098 1.844.42 1.844 1.498h.506l.971-3.515h-8.693zM157.766 11.55l-.965 3.515h.891s.907-1.544 2.568-1.544l-1.454 5.323-2.849 10.428h2.93l4.251-15.705c.678.098 1.844.42 1.844 1.498h.506l.971-3.515h-8.693zM47.965 6.728 41.8 29.272h8.222c1.2 0 2.252-.806 2.574-1.965l.43-1.584h-2.608c-.23.818-.569 1.85-1.419 1.85h-3.734l4.998-19.036h3.9c.484 0 .822.467.679.928l-.322 1.03h2.654l1.035-3.767H47.953h.012zM137.314 11.55c-1.092 0-2.77.732-3.057 1.786l-.178.657s-.109.374-.281.99h2.774l.184-.644c.184-.646.678-.818 1.345-.818h4.033l-3.488 12.732c-.442 1.314-1.826 1.314-1.993 1.314h-3.688l1.913-6.77h2.918l.885 1.32.885-3.405h-6.803a4260.761 4260.761 0 0 0-2.861 10.554h10.824l4.849-17.722h-8.25l-.011.006zM76.087 11.55l-.569 1.97h4.223L75.26 29.273h1.298c1.092 0 1.678-.732 1.965-1.786l.178-.657c.04-.011 4.177-15.273 4.177-15.273h-6.796l.005-.006zM71.336 11.55l.506 1.936-4.315 15.786h2.861L75.14 11.55h-3.803zM168.395 11.55l-4.849 17.722h8.152c1.092 0 2.465-.732 2.752-1.786l4.361-15.936h-10.416zm3.562 14.928a1.53 1.53 0 0 1-1.465 1.089h-3.511l3.31-12.341a2.289 2.289 0 0 1 2.212-1.705h3.165l-3.705 12.957h-.006zM181.281 11.55l-4.849 17.722h8.153c1.091 0 2.464-.732 2.752-1.786l4.36-15.936h-10.416zm3.562 14.928a1.53 1.53 0 0 1-1.465 1.089h-3.51l3.309-12.341a2.289 2.289 0 0 1 2.212-1.705h3.166l-3.706 12.957h-.006zM89.117 11.55l-.568 1.97h4.222L88.29 29.273h1.298c1.092 0 1.678-.732 1.965-1.786l.178-.657c.04-.011 4.177-15.273 4.177-15.273h-6.796l.005-.006zM84.36 11.55l.512 1.936-4.315 15.786h2.861L88.17 11.55H84.36zM101.653 18.718l-.563-1.326-.344 1.326-.552 2.085h6.613l2.516-9.247H98.35l-4.815 17.722h8.796c1.092 0 2.344-.732 2.632-1.786l.178-.657s.109-.374.281-.99h-2.775l-.184.645a1.493 1.493 0 0 1-1.436 1.088h-4.033l3.28-12.34a2.29 2.29 0 0 1 2.212-1.706h3.689l-1.488 5.191h-3.034v-.005z"/>
    </g>
    <defs>
        <clipPath id="5jlm365r7a">
            <path fill="#fff" transform="translate(.309 .5)" d="M0 0h191.383v35H0z"/>
        </clipPath>
    </defs>
</svg>
